<svg viewBox="0 0 512 512" xmlns="http://www.w3.org/2000/svg"><path d="M80.918 377.056H202v62.104h-63a9.896 9.896 0 1 0 0 19.793h234a9.896 9.896 0 1 0 0-19.793h-63v-62.104h121.087a49.9 49.9 0 0 0 49.553-44.13H31.36a49.908 49.908 0 0 0 49.558 44.13ZM431.087 53.047H80.917A49.918 49.918 0 0 0 31 102.963v210.17h450v-210.17a49.914 49.914 0 0 0-49.913-49.916ZM337 188.58a83.012 83.012 0 0 1-43.18 72.83L256 282.09l-37.815-20.68A83.007 83.007 0 0 1 175 188.58v-60.653l81-25.837 81 25.837Z" fill="#063738" class="fill-000000"></path><path d="M221.116 188.813a9.894 9.894 0 1 0-13.992 13.992l25.444 25.445a9.898 9.898 0 0 0 14.001 0l58.316-58.324a9.9 9.9 0 1 0-14.01-13.992l-51.31 51.319Z" fill="#063738" class="fill-000000"></path></svg>