<svg xmlns="http://www.w3.org/2000/svg" xmlns:xlink="http://www.w3.org/1999/xlink" width="1217" height="895" viewBox="0 0 1217 895">
  <defs>
    <filter id="Elipse_5" x="420" y="125" width="620" height="620" filterUnits="userSpaceOnUse">
      <feOffset input="SourceAlpha"/>
      <feGaussianBlur stdDeviation="4" result="blur"/>
      <feFlood flood-color="#7325dd"/>
      <feComposite operator="in" in2="blur"/>
      <feComposite in="SourceGraphic"/>
    </filter>
    <filter id="Elipse_4" x="443" y="125" width="620" height="620" filterUnits="userSpaceOnUse">
      <feOffset input="SourceAlpha"/>
      <feGaussianBlur stdDeviation="4" result="blur-2"/>
      <feFlood flood-color="#30eff2"/>
      <feComposite operator="in" in2="blur-2"/>
      <feComposite in="SourceGraphic"/>
    </filter>
    <filter id="Elipse_1" x="430" y="125" width="620" height="620" filterUnits="userSpaceOnUse">
      <feOffset input="SourceAlpha"/>
      <feGaussianBlur stdDeviation="4" result="blur-3"/>
      <feFlood flood-color="#30eff2"/>
      <feComposite operator="in" in2="blur-3"/>
      <feComposite in="SourceGraphic"/>
    </filter>
    <filter id="Elipse_7" x="139" y="691" width="183" height="183" filterUnits="userSpaceOnUse">
      <feOffset input="SourceAlpha"/>
      <feGaussianBlur stdDeviation="4" result="blur-4"/>
      <feFlood flood-color="#30eff2"/>
      <feComposite operator="in" in2="blur-4"/>
      <feComposite in="SourceGraphic"/>
    </filter>
    <filter id="Elipse_8" x="117" y="669" width="226" height="226" filterUnits="userSpaceOnUse">
      <feOffset input="SourceAlpha"/>
      <feGaussianBlur stdDeviation="4" result="blur-5"/>
      <feFlood flood-color="#30eff2"/>
      <feComposite operator="in" in2="blur-5"/>
      <feComposite in="SourceGraphic"/>
    </filter>
    <filter id="Elipse_9" x="25" y="25" width="209" height="208" filterUnits="userSpaceOnUse">
      <feOffset input="SourceAlpha"/>
      <feGaussianBlur stdDeviation="4" result="blur-6"/>
      <feFlood flood-color="#30eff2"/>
      <feComposite operator="in" in2="blur-6"/>
      <feComposite in="SourceGraphic"/>
    </filter>
    <filter id="Elipse_10" x="0" y="0" width="258" height="258" filterUnits="userSpaceOnUse">
      <feOffset input="SourceAlpha"/>
      <feGaussianBlur stdDeviation="4" result="blur-7"/>
      <feFlood flood-color="#30eff2"/>
      <feComposite operator="in" in2="blur-7"/>
      <feComposite in="SourceGraphic"/>
    </filter>
    <filter id="Elipse_11" x="1043" y="28" width="156" height="155" filterUnits="userSpaceOnUse">
      <feOffset input="SourceAlpha"/>
      <feGaussianBlur stdDeviation="4" result="blur-8"/>
      <feFlood flood-color="#30eff2"/>
      <feComposite operator="in" in2="blur-8"/>
      <feComposite in="SourceGraphic"/>
    </filter>
    <filter id="Elipse_12" x="1025" y="9" width="192" height="192" filterUnits="userSpaceOnUse">
      <feOffset input="SourceAlpha"/>
      <feGaussianBlur stdDeviation="4" result="blur-9"/>
      <feFlood flood-color="#30eff2"/>
      <feComposite operator="in" in2="blur-9"/>
      <feComposite in="SourceGraphic"/>
    </filter>
    <filter id="Linha_1" x="122.442" y="110.436" width="201.115" height="200.127" filterUnits="userSpaceOnUse">
      <feOffset input="SourceAlpha"/>
      <feGaussianBlur stdDeviation="3" result="blur-10"/>
      <feFlood flood-color="#30eff2"/>
      <feComposite operator="in" in2="blur-10"/>
      <feComposite in="SourceGraphic"/>
    </filter>
    <filter id="Linha_2" x="303.5" y="290" width="246" height="21" filterUnits="userSpaceOnUse">
      <feOffset input="SourceAlpha"/>
      <feGaussianBlur stdDeviation="3" result="blur-11"/>
      <feFlood flood-color="#30eff2"/>
      <feComposite operator="in" in2="blur-11"/>
      <feComposite in="SourceGraphic"/>
    </filter>
    <filter id="Elipse_13" x="300" y="287" width="26" height="26" filterUnits="userSpaceOnUse">
      <feOffset input="SourceAlpha"/>
      <feGaussianBlur stdDeviation="3" result="blur-12"/>
      <feFlood flood-color="#2feef1"/>
      <feComposite operator="in" in2="blur-12"/>
      <feComposite in="SourceGraphic"/>
    </filter>
    <filter id="Elipse_14" x="909" y="92" width="26" height="26" filterUnits="userSpaceOnUse">
      <feOffset input="SourceAlpha"/>
      <feGaussianBlur stdDeviation="3" result="blur-13"/>
      <feFlood flood-color="#2feef1"/>
      <feComposite operator="in" in2="blur-13"/>
      <feComposite in="SourceGraphic"/>
    </filter>
    <filter id="Elipse_15" x="526" y="285" width="31" height="31" filterUnits="userSpaceOnUse">
      <feOffset input="SourceAlpha"/>
      <feGaussianBlur stdDeviation="3" result="blur-14"/>
      <feFlood flood-color="#2feef1"/>
      <feComposite operator="in" in2="blur-14"/>
      <feComposite in="SourceGraphic"/>
    </filter>
    <filter id="Linha_3" x="373.734" y="606.64" width="219.766" height="21" filterUnits="userSpaceOnUse">
      <feOffset input="SourceAlpha"/>
      <feGaussianBlur stdDeviation="3" result="blur-15"/>
      <feFlood flood-color="#30eff2"/>
      <feComposite operator="in" in2="blur-15"/>
      <feComposite in="SourceGraphic"/>
    </filter>
    <filter id="Linha_4" x="212.939" y="606.726" width="181.342" height="181.342" filterUnits="userSpaceOnUse">
      <feOffset input="SourceAlpha"/>
      <feGaussianBlur stdDeviation="3" result="blur-16"/>
      <feFlood flood-color="#30eff2"/>
      <feComposite operator="in" in2="blur-16"/>
      <feComposite in="SourceGraphic"/>
    </filter>
    <filter id="Elipse_16" x="369.563" y="602.129" width="29.314" height="29.314" filterUnits="userSpaceOnUse">
      <feOffset input="SourceAlpha"/>
      <feGaussianBlur stdDeviation="3" result="blur-17"/>
      <feFlood flood-color="#2feef1"/>
      <feComposite operator="in" in2="blur-17"/>
      <feComposite in="SourceGraphic"/>
    </filter>
    <filter id="Elipse_17" x="571.308" y="598.594" width="36.385" height="36.385" filterUnits="userSpaceOnUse">
      <feOffset input="SourceAlpha"/>
      <feGaussianBlur stdDeviation="3" result="blur-18"/>
      <feFlood flood-color="#2feef1"/>
      <feComposite operator="in" in2="blur-18"/>
      <feComposite in="SourceGraphic"/>
    </filter>
    <filter id="Linha_5" x="910.234" y="94.5" width="219.766" height="21" filterUnits="userSpaceOnUse">
      <feOffset input="SourceAlpha"/>
      <feGaussianBlur stdDeviation="3" result="blur-19"/>
      <feFlood flood-color="#30eff2"/>
      <feComposite operator="in" in2="blur-19"/>
      <feComposite in="SourceGraphic"/>
    </filter>
    <filter id="Linha_6" x="790.438" y="94.941" width="141.344" height="141.619" filterUnits="userSpaceOnUse">
      <feOffset input="SourceAlpha"/>
      <feGaussianBlur stdDeviation="3" result="blur-20"/>
      <feFlood flood-color="#30eff2"/>
      <feComposite operator="in" in2="blur-20"/>
      <feComposite in="SourceGraphic"/>
    </filter>
    <filter id="Elipse_18" x="785" y="211" width="31" height="31" filterUnits="userSpaceOnUse">
      <feOffset input="SourceAlpha"/>
      <feGaussianBlur stdDeviation="3" result="blur-21"/>
      <feFlood flood-color="#2feef1"/>
      <feComposite operator="in" in2="blur-21"/>
      <feComposite in="SourceGraphic"/>
    </filter>
    <filter id="Elipse_5-2" x="420" y="125" width="620" height="620" filterUnits="userSpaceOnUse">
      <feOffset input="SourceAlpha"/>
      <feGaussianBlur stdDeviation="4" result="blur-22"/>
      <feFlood flood-color="#7325dd"/>
      <feComposite operator="in" in2="blur-22"/>
      <feComposite in="SourceGraphic"/>
    </filter>
    <filter id="Elipse_4-2" x="443" y="125" width="620" height="620" filterUnits="userSpaceOnUse">
      <feOffset input="SourceAlpha"/>
      <feGaussianBlur stdDeviation="4" result="blur-23"/>
      <feFlood flood-color="#30eff2"/>
      <feComposite operator="in" in2="blur-23"/>
      <feComposite in="SourceGraphic"/>
    </filter>
    <filter id="Elipse_1-2" x="430" y="125" width="620" height="620" filterUnits="userSpaceOnUse">
      <feOffset input="SourceAlpha"/>
      <feGaussianBlur stdDeviation="4" result="blur-24"/>
      <feFlood flood-color="#30eff2"/>
      <feComposite operator="in" in2="blur-24"/>
      <feComposite in="SourceGraphic"/>
    </filter>
  </defs>
  <g id="Grupo_12" data-name="Grupo 12" transform="translate(-650 -105)">
    <g id="Grupo_10" data-name="Grupo 10" transform="translate(-48)">
      <g transform="matrix(1, 0, 0, 1, 698, 105)" filter="url(#Elipse_5)">
        <g id="Elipse_5-3" data-name="Elipse 5" transform="translate(432 137)" fill="none" stroke="#7325dd" stroke-width="35">
          <circle cx="298" cy="298" r="298" stroke="none"/>
          <circle cx="298" cy="298" r="280.5" fill="none"/>
        </g>
      </g>
      <g transform="matrix(1, 0, 0, 1, 698, 105)" filter="url(#Elipse_4)">
        <g id="Elipse_4-3" data-name="Elipse 4" transform="translate(455 137)" fill="none" stroke="#b8f6f7" stroke-width="25">
          <circle cx="298" cy="298" r="298" stroke="none"/>
          <circle cx="298" cy="298" r="285.5" fill="none"/>
        </g>
      </g>
      <g transform="matrix(1, 0, 0, 1, 698, 105)" filter="url(#Elipse_1)">
        <g id="Elipse_1-3" data-name="Elipse 1" transform="translate(442 137)" fill="none" stroke="#30eff2" stroke-width="25">
          <circle cx="298" cy="298" r="298" stroke="none"/>
          <circle cx="298" cy="298" r="285.5" fill="none"/>
        </g>
      </g>
      <g id="_1" data-name="1" transform="translate(1208 340.01)">
        <path id="Caminho_11" data-name="Caminho 11" d="M315.393,385.562H139.154A11.154,11.154,0,0,1,128,374.408V209.814a11.154,11.154,0,0,1,11.154-11.154H315.393a11.154,11.154,0,0,1,11.154,11.154V374.408A11.154,11.154,0,0,1,315.393,385.562ZM150.309,363.253h153.93V220.969H150.309Z" transform="translate(0 -38.628)" fill="#6f2edd"/>
        <path id="Caminho_12" data-name="Caminho 12" d="M301.6,182.34H167.564a11.154,11.154,0,0,1,0-22.309H290.447V126.167a55.867,55.867,0,1,0-111.733,0,11.153,11.153,0,1,1-22.307,0,78.176,78.176,0,1,1,156.351,0l0,45.019A11.154,11.154,0,0,1,301.6,182.34Z" transform="translate(-7.283 0)" fill="#6f2edd"/>
        <path id="Caminho_13" data-name="Caminho 13" d="M249.618,328.827A34.578,34.578,0,1,1,284.2,294.248a34.578,34.578,0,0,1-34.578,34.578Zm0-46.848a12.27,12.27,0,1,0,12.27,12.27A12.27,12.27,0,0,0,249.618,281.979Z" transform="translate(-22.315 -54.27)" fill="#6f2edd"/>
        <path id="Caminho_14" data-name="Caminho 14" d="M257.694,371.995A11.154,11.154,0,0,1,246.54,360.84V333.824a11.154,11.154,0,0,1,22.309,0V360.84A11.154,11.154,0,0,1,257.694,371.995Z" transform="translate(-30.391 -70.422)" fill="#6f2edd"/>
      </g>
      <g id="_1-2" data-name="1" transform="translate(1214 340.01)">
        <path id="Caminho_11-2" data-name="Caminho 11" d="M315.393,385.562H139.154A11.154,11.154,0,0,1,128,374.408V209.814a11.154,11.154,0,0,1,11.154-11.154H315.393a11.154,11.154,0,0,1,11.154,11.154V374.408A11.154,11.154,0,0,1,315.393,385.562ZM150.309,363.253h153.93V220.969H150.309Z" transform="translate(0 -38.628)" fill="#b5f5f6"/>
        <path id="Caminho_12-2" data-name="Caminho 12" d="M301.6,182.34H167.564a11.154,11.154,0,0,1,0-22.309H290.447V126.167a55.867,55.867,0,1,0-111.733,0,11.153,11.153,0,1,1-22.307,0,78.176,78.176,0,1,1,156.351,0l0,45.019A11.154,11.154,0,0,1,301.6,182.34Z" transform="translate(-7.283 0)" fill="#b5f5f6"/>
        <path id="Caminho_13-2" data-name="Caminho 13" d="M249.618,328.827A34.578,34.578,0,1,1,284.2,294.248a34.578,34.578,0,0,1-34.578,34.578Zm0-46.848a12.27,12.27,0,1,0,12.27,12.27A12.27,12.27,0,0,0,249.618,281.979Z" transform="translate(-22.315 -54.27)" fill="#b5f5f6"/>
        <path id="Caminho_14-2" data-name="Caminho 14" d="M257.694,371.995A11.154,11.154,0,0,1,246.54,360.84V333.824a11.154,11.154,0,0,1,22.309,0V360.84A11.154,11.154,0,0,1,257.694,371.995Z" transform="translate(-30.391 -70.422)" fill="#b5f5f6"/>
      </g>
      <g id="_1-3" data-name="1" transform="translate(1211 343.01)">
        <path id="Caminho_11-3" data-name="Caminho 11" d="M315.393,385.562H139.154A11.154,11.154,0,0,1,128,374.408V209.814a11.154,11.154,0,0,1,11.154-11.154H315.393a11.154,11.154,0,0,1,11.154,11.154V374.408A11.154,11.154,0,0,1,315.393,385.562ZM150.309,363.253h153.93V220.969H150.309Z" transform="translate(0 -38.628)" fill="#5ef3f5"/>
        <path id="Caminho_12-3" data-name="Caminho 12" d="M301.6,182.34H167.564a11.154,11.154,0,0,1,0-22.309H290.447V126.167a55.867,55.867,0,1,0-111.733,0,11.153,11.153,0,1,1-22.307,0,78.176,78.176,0,1,1,156.351,0l0,45.019A11.154,11.154,0,0,1,301.6,182.34Z" transform="translate(-7.283 0)" fill="#5ef3f5"/>
        <path id="Caminho_13-3" data-name="Caminho 13" d="M249.618,328.827A34.578,34.578,0,1,1,284.2,294.248a34.578,34.578,0,0,1-34.578,34.578Zm0-46.848a12.27,12.27,0,1,0,12.27,12.27A12.27,12.27,0,0,0,249.618,281.979Z" transform="translate(-22.315 -54.27)" fill="#5ef3f5"/>
        <path id="Caminho_14-3" data-name="Caminho 14" d="M257.694,371.995A11.154,11.154,0,0,1,246.54,360.84V333.824a11.154,11.154,0,0,1,22.309,0V360.84A11.154,11.154,0,0,1,257.694,371.995Z" transform="translate(-30.391 -70.422)" fill="#5ef3f5"/>
      </g>
    </g>
    <g id="Grupo_7" data-name="Grupo 7" transform="translate(708 216.858)">
      <g id="Grupo_5" data-name="Grupo 5" transform="translate(121.874 619.225)">
        <path id="Caminho_6" data-name="Caminho 6" d="M104.991,46.64a2.083,2.083,0,0,0-1.919-1.715H96.088a41.757,41.757,0,0,0-4.982-12.006l.572-.572c1.429-1.429,2.859-2.9,4.329-4.288a2.051,2.051,0,0,0,.245-2.654,50.6,50.6,0,0,0-11.638-11.6,2.051,2.051,0,0,0-2.654.245c-.776.817-1.593,1.593-2.369,2.369-.858.817-1.674,1.674-2.491,2.532a41.9,41.9,0,0,0-12.047-4.941V7.11a2.064,2.064,0,0,0-1.715-2.042,50.889,50.889,0,0,0-16.131,0,2.089,2.089,0,0,0-1.715,2.164c.041.858.041,1.756,0,2.614v4.165a41.894,41.894,0,0,0-12.047,4.941c-.817-.858-1.674-1.674-2.491-2.532l-2.369-2.369a2.051,2.051,0,0,0-2.654-.245A51.419,51.419,0,0,0,14.292,25.4a2,2,0,0,0,.245,2.654c1.47,1.429,2.9,2.859,4.329,4.288l.572.572a41.286,41.286,0,0,0-4.982,12.006c-1.633-.041-3.267-.041-4.86,0H7.473A2.012,2.012,0,0,0,5.553,46.64a52.141,52.141,0,0,0,0,16.457,2.038,2.038,0,0,0,1.838,1.715c.163,0,.368.041.531.041H14.5A41.089,41.089,0,0,0,19.56,76.982c-.939.9-1.878,1.838-2.777,2.777L15.232,81.31l-.613.613a2.038,2.038,0,0,0-.163,2.573A51.536,51.536,0,0,0,26.013,96.011a2.034,2.034,0,0,0,2.573-.163l.2-.2c.939-.98,1.878-1.919,2.818-2.859l1.878-1.878a41.764,41.764,0,0,0,12.088,4.982v7.065a2,2,0,0,0,1.715,1.878,52.574,52.574,0,0,0,8.045.653,48.229,48.229,0,0,0,8.045-.653,2.04,2.04,0,0,0,1.715-1.878V95.889a41.765,41.765,0,0,0,12.088-4.982c.613.653,1.266,1.266,1.878,1.878L81.877,95.6l.245.245a2.038,2.038,0,0,0,2.573.163A49.894,49.894,0,0,0,96.252,84.5a2.034,2.034,0,0,0-.163-2.573,8.622,8.622,0,0,0-.613-.613l-1.552-1.552-2.777-2.777a42.2,42.2,0,0,0,5.064-12.129h7.106a2.038,2.038,0,0,0,1.838-1.715,49.836,49.836,0,0,0,.653-8.208A79.129,79.129,0,0,0,104.991,46.64Zm-3.8,14.048H94.251a2.086,2.086,0,0,0-1.878,1.633A37.4,37.4,0,0,1,86.655,76a2.1,2.1,0,0,0,0,2.328,3.525,3.525,0,0,0,.653.735c1.184,1.143,2.369,2.328,3.553,3.512l.858.858a46.617,46.617,0,0,1-8.167,8.127L81.8,89.8,79.141,87.15a3.879,3.879,0,0,0-.776-.653,2.04,2.04,0,0,0-2.246,0,37.074,37.074,0,0,1-13.6,5.595A2.074,2.074,0,0,0,60.928,93.6a5.658,5.658,0,0,0-.123,1.225c.041,1.47.041,2.9.041,4.37v1.674a47.642,47.642,0,0,1-11.312,0V99.2c0-1.47,0-2.9.041-4.37a5.658,5.658,0,0,0-.123-1.225,2.014,2.014,0,0,0-1.593-1.511,36.508,36.508,0,0,1-13.6-5.595,2.04,2.04,0,0,0-2.246,0,3.879,3.879,0,0,0-.776.653c-.858.9-1.756,1.8-2.654,2.654-.572.572-1.184,1.143-1.756,1.756a46.617,46.617,0,0,1-8.167-8.127l.858-.858c1.184-1.184,2.328-2.369,3.553-3.512a4.868,4.868,0,0,0,.613-.735,2.026,2.026,0,0,0,0-2.328,37.4,37.4,0,0,1-5.717-13.68,2,2,0,0,0-1.878-1.633,1.647,1.647,0,0,0-.449,0H9.147a46.252,46.252,0,0,1,0-11.638h.286c1.838,0,3.757,0,5.635.041a7.02,7.02,0,0,0,1.388-.123,1.967,1.967,0,0,0,1.47-1.593A37.944,37.944,0,0,1,23.522,33.9a2.123,2.123,0,0,0,.041-2.246,7.912,7.912,0,0,0-1.143-1.307l-.817-.817-3.063-3.063a45.521,45.521,0,0,1,8.29-8.29l1.143,1.143c1.021,1.021,2.042,2.042,3.022,3.063a4.786,4.786,0,0,0,1.348.98A2.083,2.083,0,0,0,34.3,23.2a37.031,37.031,0,0,1,13.517-5.554,2.09,2.09,0,0,0,1.593-1.47,5.277,5.277,0,0,0,.123-1.184c-.041-.939-.041-1.838,0-2.777V8.825a47.644,47.644,0,0,1,11.312,0v6.166a5.276,5.276,0,0,0,.123,1.184,2.026,2.026,0,0,0,1.593,1.47A37.031,37.031,0,0,1,76.078,23.2a2.083,2.083,0,0,0,1.96.163,4.786,4.786,0,0,0,1.348-.98c.98-1.021,2-2.042,3.022-3.063l1.143-1.143A46.167,46.167,0,0,1,91.8,26.385l-3.063,3.063-.817.817a7.911,7.911,0,0,0-1.143,1.307,2.041,2.041,0,0,0,.041,2.246,37.944,37.944,0,0,1,5.595,13.476,2.09,2.09,0,0,0,1.47,1.593,3.753,3.753,0,0,0,1.388.123c1.878-.082,3.8-.041,5.635-.041h.286a46.713,46.713,0,0,1,.368,5.84A45.925,45.925,0,0,1,101.193,60.688Zm1.593-13.68Z" transform="translate(-4.9 -4.425)" fill="#30eff2"/>
        <path id="Caminho_7" data-name="Caminho 7" d="M111.006,74.111a25.494,25.494,0,0,0-6.126-6.085,26.461,26.461,0,0,0-30.832,0A26.529,26.529,0,0,0,63.268,85.26a25.454,25.454,0,0,0-.368,4.329,29.86,29.86,0,0,0,.327,4.288,26.3,26.3,0,0,0,4.7,11.23,25.91,25.91,0,0,0,6.085,6.044A26.738,26.738,0,0,0,85.2,115.765a27.24,27.24,0,0,0,8.412,0A26.738,26.738,0,0,0,104.8,111.15a27.554,27.554,0,0,0,6.085-6.044,26.3,26.3,0,0,0,4.7-11.23h0a26.918,26.918,0,0,0-.041-8.617A24.952,24.952,0,0,0,111.006,74.111Zm.613,19.112a22.369,22.369,0,0,1-3.961,9.474,22.609,22.609,0,0,1-5.145,5.1,22.074,22.074,0,0,1-9.433,3.88,23.3,23.3,0,0,1-7.146,0,22.448,22.448,0,0,1-9.474-3.88,23.464,23.464,0,0,1-5.145-5.1,22.586,22.586,0,0,1-3.961-9.474,21.467,21.467,0,0,1-.286-3.634,22.291,22.291,0,0,1,.286-3.675,22.663,22.663,0,0,1,3.92-9.433,22.525,22.525,0,0,1,14.62-9.025,22.732,22.732,0,0,1,7.187,0,22.073,22.073,0,0,1,9.433,3.879A22.968,22.968,0,0,1,107.7,76.48a22.663,22.663,0,0,1,3.92,9.433,21.616,21.616,0,0,1,.286,3.675A26.711,26.711,0,0,1,111.618,93.223Z" transform="translate(-39.215 -39.124)" fill="#6b3adf"/>
        <path id="Caminho_8" data-name="Caminho 8" d="M118.327,104.942,103.83,118.7l-6.248-6.493a2.05,2.05,0,0,0-2.94,2.859l7.677,7.963a2.072,2.072,0,0,0,1.47.613,2.194,2.194,0,0,0,1.429-.572l16.008-15.191a2.059,2.059,0,0,0,.082-2.9A2.12,2.12,0,0,0,118.327,104.942Z" transform="translate(-57.644 -63.543)" fill="#b5f6f7"/>
      </g>
      <g transform="matrix(1, 0, 0, 1, -58, -111.86)" filter="url(#Elipse_7)">
        <g id="Elipse_7-2" data-name="Elipse 7" transform="translate(151 703)" fill="none" stroke="#30eff2" stroke-width="3">
          <circle cx="79.5" cy="79.5" r="79.5" stroke="none"/>
          <circle cx="79.5" cy="79.5" r="78" fill="none"/>
        </g>
      </g>
      <g transform="matrix(1, 0, 0, 1, -58, -111.86)" filter="url(#Elipse_8)">
        <g id="Elipse_8-2" data-name="Elipse 8" transform="translate(129 681)" fill="none" stroke="#30eff2" stroke-width="3">
          <circle cx="101" cy="101" r="101" stroke="none"/>
          <circle cx="101" cy="101" r="99.5" fill="none"/>
        </g>
      </g>
    </g>
    <g id="Grupo_9" data-name="Grupo 9" transform="translate(181 -452.347)">
      <g id="Grupo_6" data-name="Grupo 6" transform="translate(549.829 632.913)">
        <path id="Caminho_1" data-name="Caminho 1" d="M21.947,6.5A3.448,3.448,0,0,1,25.4,9.948V15.3a79.3,79.3,0,0,1-3.8,24.262L12.409,68.121a3.448,3.448,0,0,1-6.566-2.1l9.172-28.559A72.414,72.414,0,0,0,18.492,15.3V9.948A3.448,3.448,0,0,1,21.94,6.5Z" transform="translate(30.222 34.885)" fill="#b5f6f7"/>
        <path id="Caminho_2" data-name="Caminho 2" d="M16.66,18.793a13.793,13.793,0,1,1,27.586,0,3.448,3.448,0,0,1-6.9,0,6.9,6.9,0,1,0-13.793,0v2.29A77.908,77.908,0,0,1,23.1,29.5a3.448,3.448,0,0,1-6.855-.731,71.524,71.524,0,0,0,.414-7.69Zm24.2,6.9a3.448,3.448,0,0,1,3.359,3.538A79.311,79.311,0,0,1,40.17,52.255L31.439,78.462a3.45,3.45,0,1,1-6.545-2.186l8.738-26.207a72.413,72.413,0,0,0,3.69-21.021A3.448,3.448,0,0,1,40.86,25.69ZM17.715,40.276a3.448,3.448,0,0,1,2.276,4.317L11,73.545A3.448,3.448,0,1,1,4.418,71.5L13.4,42.545A3.448,3.448,0,0,1,17.715,40.276Z" transform="translate(21.716 26.04)" fill="#6b3adf"/>
        <path id="Caminho_3" data-name="Caminho 3" d="M15.68,19.568a24.145,24.145,0,0,1,46.9,8.048,3.448,3.448,0,1,1-6.9,0,17.241,17.241,0,0,0-33.5-5.745,3.45,3.45,0,1,1-6.5-2.3Zm2.069,11.517a3.448,3.448,0,0,1,3.1,3.766,73.931,73.931,0,0,1-2.759,14.007L9.66,76.94a3.449,3.449,0,1,1-6.607-1.979L11.48,46.878a67.035,67.035,0,0,0,2.5-12.7,3.448,3.448,0,0,1,3.766-3.1Zm41.379,4.462A3.448,3.448,0,0,1,62.577,39,79.3,79.3,0,0,1,58.218,64.94L50.7,86.63a3.448,3.448,0,0,1-6.51-2.255l7.51-21.69A72.515,72.515,0,0,0,55.687,39a3.448,3.448,0,0,1,3.448-3.448Z" transform="translate(13.723 17.217)" fill="#30eff2"/>
        <path id="Caminho_4" data-name="Caminho 4" d="M17.26,17.336A34.455,34.455,0,0,1,53.135,2.763,3.451,3.451,0,1,1,51.7,9.515,27.559,27.559,0,0,0,22.991,21.17a3.448,3.448,0,1,1-5.731-3.835ZM63.6,10.749a3.448,3.448,0,0,1,4.862-.359,34.414,34.414,0,0,1,11.945,26.1V46.839a3.448,3.448,0,1,1-6.9,0V36.494a27.517,27.517,0,0,0-9.559-20.883,3.448,3.448,0,0,1-.352-4.862ZM15.728,28.508a3.448,3.448,0,0,1,2.91,3.917,27.3,27.3,0,0,0-.3,4.069A52.013,52.013,0,0,1,16.28,50.977L8.418,78.032A3.448,3.448,0,1,1,1.8,76.108L9.66,49.053a45.042,45.042,0,0,0,1.779-12.559,35.175,35.175,0,0,1,.372-5.076,3.448,3.448,0,0,1,3.917-2.91ZM76.984,53.749a3.448,3.448,0,0,1,3.145,3.724,79.119,79.119,0,0,1-4.414,20.234L70.584,91.97a3.448,3.448,0,1,1-6.49-2.331l5.138-14.276A72.482,72.482,0,0,0,73.26,56.894a3.448,3.448,0,0,1,3.724-3.145Z" transform="translate(6.234 8.339)" fill="#b5f6f7"/>
        <path id="Caminho_5" data-name="Caminho 5" d="M30.251,6.5A44.828,44.828,0,0,1,97.492,45.333a3.448,3.448,0,0,1-6.9,0A37.931,37.931,0,0,0,33.7,12.47,3.448,3.448,0,0,1,30.251,6.5Zm-6.138,8.669a3.448,3.448,0,0,1,.276,4.869,37.779,37.779,0,0,0-9.655,25.29,3.448,3.448,0,0,1-6.9,0A44.66,44.66,0,0,1,19.251,15.45a3.448,3.448,0,0,1,4.869-.276ZM10.285,52.367a3.448,3.448,0,0,1,2.386,4.248L7.3,75.7A3.448,3.448,0,1,1,.665,73.836L6.03,54.753A3.448,3.448,0,0,1,10.285,52.367Zm83.793,3.317A3.448,3.448,0,0,1,97.458,59.2c-.207,10.338-1.11,20.862-5.014,31.262l-.483,1.29a3.448,3.448,0,0,1-6.455-2.421l.483-1.29c3.49-9.31,4.372-18.9,4.572-28.979A3.448,3.448,0,0,1,94.078,55.684Z" transform="translate(-0.495 -0.499)" fill="#6b3adf"/>
      </g>
      <g transform="matrix(1, 0, 0, 1, 469, 557.35)" filter="url(#Elipse_9)">
        <g id="Elipse_9-2" data-name="Elipse 9" transform="translate(37 37)" fill="none" stroke="#30eff2" stroke-width="3">
          <ellipse cx="92.5" cy="92" rx="92.5" ry="92" stroke="none"/>
          <ellipse cx="92.5" cy="92" rx="91" ry="90.5" fill="none"/>
        </g>
      </g>
      <g transform="matrix(1, 0, 0, 1, 469, 557.35)" filter="url(#Elipse_10)">
        <g id="Elipse_10-2" data-name="Elipse 10" transform="translate(12 12)" fill="none" stroke="#30eff2" stroke-width="3">
          <circle cx="117" cy="117" r="117" stroke="none"/>
          <circle cx="117" cy="117" r="115.5" fill="none"/>
        </g>
      </g>
    </g>
    <g id="Grupo_8" data-name="Grupo 8" transform="translate(1206 -13.947)">
      <g id="Grupo_4" data-name="Grupo 4" transform="translate(517.421 199.86)">
        <path id="Caminho_9" data-name="Caminho 9" d="M96.829,30.977,90.015,20.756a3.407,3.407,0,0,0-2.828-1.533H45.417a23.849,23.849,0,1,0,0,27.256h7.7a3.407,3.407,0,0,0,2.419-.988l4.4-4.429,4.4,4.429a3.407,3.407,0,0,0,4.838,0l4.4-4.429,4.4,4.429a3.407,3.407,0,0,0,2.419.988h6.814a3.407,3.407,0,0,0,2.828-1.533l6.814-10.221A3.407,3.407,0,0,0,96.829,30.977Z" transform="translate(-1.995 -8.999)" fill="#30eff2"/>
        <path id="Caminho_10" data-name="Caminho 10" d="M16.221,33.442A10.221,10.221,0,1,1,26.442,23.221,10.221,10.221,0,0,1,16.221,33.442ZM16.221,23.221Z" transform="translate(7.626 0.512)" fill="#6b3adf"/>
        <path id="Caminho_15" data-name="Caminho 15" d="M11.439,23.877a5.439,5.439,0,1,1,5.439-5.439A5.439,5.439,0,0,1,11.439,23.877ZM11.439,18.439Z" transform="translate(12.325 5.525)" fill="#b5f6f7"/>
      </g>
      <g transform="matrix(1, 0, 0, 1, -556, 118.95)" filter="url(#Elipse_11)">
        <g id="Elipse_11-2" data-name="Elipse 11" transform="translate(1055 40)" fill="none" stroke="#30eff2" stroke-width="3">
          <ellipse cx="66" cy="65.5" rx="66" ry="65.5" stroke="none"/>
          <ellipse cx="66" cy="65.5" rx="64.5" ry="64" fill="none"/>
        </g>
      </g>
      <g transform="matrix(1, 0, 0, 1, -556, 118.95)" filter="url(#Elipse_12)">
        <g id="Elipse_12-2" data-name="Elipse 12" transform="translate(1037 21)" fill="none" stroke="#30eff2" stroke-width="3">
          <circle cx="84" cy="84" r="84" stroke="none"/>
          <circle cx="84" cy="84" r="82.5" fill="none"/>
        </g>
      </g>
    </g>
    <g transform="matrix(1, 0, 0, 1, 650, 105)" filter="url(#Linha_1)">
      <line id="Linha_1-2" data-name="Linha 1" x2="181" y2="180" transform="translate(132.5 120.5)" fill="none" stroke="#30eff2" stroke-width="3"/>
    </g>
    <g transform="matrix(1, 0, 0, 1, 650, 105)" filter="url(#Linha_2)">
      <line id="Linha_2-2" data-name="Linha 2" x2="228" transform="translate(312.5 300.5)" fill="none" stroke="#30eff2" stroke-width="3"/>
    </g>
    <g transform="matrix(1, 0, 0, 1, 650, 105)" filter="url(#Elipse_13)">
      <circle id="Elipse_13-2" data-name="Elipse 13" cx="4" cy="4" r="4" transform="translate(309 296)" fill="#30eff2"/>
    </g>
    <g transform="matrix(1, 0, 0, 1, 650, 105)" filter="url(#Elipse_14)">
      <circle id="Elipse_14-2" data-name="Elipse 14" cx="4" cy="4" r="4" transform="translate(918 101)" fill="#30eff2"/>
    </g>
    <g transform="matrix(1, 0, 0, 1, 650, 105)" filter="url(#Elipse_15)">
      <circle id="Elipse_15-2" data-name="Elipse 15" cx="6.5" cy="6.5" r="6.5" transform="translate(535 294)" fill="#30eff2"/>
    </g>
    <g transform="matrix(1, 0, 0, 1, 650, 105)" filter="url(#Linha_3)">
      <line id="Linha_3-2" data-name="Linha 3" x1="201.766" transform="translate(382.73 617.14)" fill="none" stroke="#30eff2" stroke-width="3"/>
    </g>
    <g transform="matrix(1, 0, 0, 1, 650, 105)" filter="url(#Linha_4)">
      <line id="Linha_4-2" data-name="Linha 4" x2="228" transform="translate(384.22 616.79) rotate(135)" fill="none" stroke="#30eff2" stroke-width="3"/>
    </g>
    <g transform="matrix(1, 0, 0, 1, 650, 105)" filter="url(#Elipse_16)">
      <circle id="Elipse_16-2" data-name="Elipse 16" cx="4" cy="4" r="4" transform="translate(389.88 616.79) rotate(135)" fill="#30eff2"/>
    </g>
    <g transform="matrix(1, 0, 0, 1, 650, 105)" filter="url(#Elipse_17)">
      <circle id="Elipse_17-2" data-name="Elipse 17" cx="6.5" cy="6.5" r="6.5" transform="translate(598.69 616.79) rotate(135)" fill="#30eff2"/>
    </g>
    <g transform="matrix(1, 0, 0, 1, 650, 105)" filter="url(#Linha_5)">
      <line id="Linha_5-2" data-name="Linha 5" x1="201.766" transform="translate(919.23 105)" fill="none" stroke="#30eff2" stroke-width="3"/>
    </g>
    <g transform="matrix(1, 0, 0, 1, 650, 105)" filter="url(#Linha_6)">
      <line id="Linha_6-2" data-name="Linha 6" x1="121.22" y2="121.5" transform="translate(800.5 105)" fill="none" stroke="#30eff2" stroke-width="3"/>
    </g>
    <g transform="matrix(1, 0, 0, 1, 650, 105)" filter="url(#Elipse_18)">
      <circle id="Elipse_18-2" data-name="Elipse 18" cx="6.5" cy="6.5" r="6.5" transform="translate(794 220)" fill="#30eff2"/>
    </g>
    <g id="Grupo_11" data-name="Grupo 11" transform="translate(-48)">
      <g transform="matrix(1, 0, 0, 1, 698, 105)" filter="url(#Elipse_5-2)">
        <g id="Elipse_5-4" data-name="Elipse 5" transform="translate(432 137)" fill="none" stroke="#7325dd" stroke-width="35">
          <circle cx="298" cy="298" r="298" stroke="none"/>
          <circle cx="298" cy="298" r="280.5" fill="none"/>
        </g>
      </g>
      <g transform="matrix(1, 0, 0, 1, 698, 105)" filter="url(#Elipse_4-2)">
        <g id="Elipse_4-4" data-name="Elipse 4" transform="translate(455 137)" fill="none" stroke="#b8f6f7" stroke-width="25">
          <circle cx="298" cy="298" r="298" stroke="none"/>
          <circle cx="298" cy="298" r="285.5" fill="none"/>
        </g>
      </g>
      <g transform="matrix(1, 0, 0, 1, 698, 105)" filter="url(#Elipse_1-2)">
        <g id="Elipse_1-4" data-name="Elipse 1" transform="translate(442 137)" fill="none" stroke="#30eff2" stroke-width="25">
          <circle cx="298" cy="298" r="298" stroke="none"/>
          <circle cx="298" cy="298" r="285.5" fill="none"/>
        </g>
      </g>
      <g id="_1-4" data-name="1" transform="translate(1208 340.01)">
        <path id="Caminho_11-4" data-name="Caminho 11" d="M315.393,385.562H139.154A11.154,11.154,0,0,1,128,374.408V209.814a11.154,11.154,0,0,1,11.154-11.154H315.393a11.154,11.154,0,0,1,11.154,11.154V374.408A11.154,11.154,0,0,1,315.393,385.562ZM150.309,363.253h153.93V220.969H150.309Z" transform="translate(0 -38.628)" fill="#6f2edd"/>
        <path id="Caminho_12-4" data-name="Caminho 12" d="M301.6,182.34H167.564a11.154,11.154,0,0,1,0-22.309H290.447V126.167a55.867,55.867,0,1,0-111.733,0,11.153,11.153,0,1,1-22.307,0,78.176,78.176,0,1,1,156.351,0l0,45.019A11.154,11.154,0,0,1,301.6,182.34Z" transform="translate(-7.283 0)" fill="#6f2edd"/>
        <path id="Caminho_13-4" data-name="Caminho 13" d="M249.618,328.827A34.578,34.578,0,1,1,284.2,294.248a34.578,34.578,0,0,1-34.578,34.578Zm0-46.848a12.27,12.27,0,1,0,12.27,12.27A12.27,12.27,0,0,0,249.618,281.979Z" transform="translate(-22.315 -54.27)" fill="#6f2edd"/>
        <path id="Caminho_14-4" data-name="Caminho 14" d="M257.694,371.995A11.154,11.154,0,0,1,246.54,360.84V333.824a11.154,11.154,0,0,1,22.309,0V360.84A11.154,11.154,0,0,1,257.694,371.995Z" transform="translate(-30.391 -70.422)" fill="#6f2edd"/>
      </g>
      <g id="_1-5" data-name="1" transform="translate(1214 340.01)">
        <path id="Caminho_11-5" data-name="Caminho 11" d="M315.393,385.562H139.154A11.154,11.154,0,0,1,128,374.408V209.814a11.154,11.154,0,0,1,11.154-11.154H315.393a11.154,11.154,0,0,1,11.154,11.154V374.408A11.154,11.154,0,0,1,315.393,385.562ZM150.309,363.253h153.93V220.969H150.309Z" transform="translate(0 -38.628)" fill="#b5f5f6"/>
        <path id="Caminho_12-5" data-name="Caminho 12" d="M301.6,182.34H167.564a11.154,11.154,0,0,1,0-22.309H290.447V126.167a55.867,55.867,0,1,0-111.733,0,11.153,11.153,0,1,1-22.307,0,78.176,78.176,0,1,1,156.351,0l0,45.019A11.154,11.154,0,0,1,301.6,182.34Z" transform="translate(-7.283 0)" fill="#b5f5f6"/>
        <path id="Caminho_13-5" data-name="Caminho 13" d="M249.618,328.827A34.578,34.578,0,1,1,284.2,294.248a34.578,34.578,0,0,1-34.578,34.578Zm0-46.848a12.27,12.27,0,1,0,12.27,12.27A12.27,12.27,0,0,0,249.618,281.979Z" transform="translate(-22.315 -54.27)" fill="#b5f5f6"/>
        <path id="Caminho_14-5" data-name="Caminho 14" d="M257.694,371.995A11.154,11.154,0,0,1,246.54,360.84V333.824a11.154,11.154,0,0,1,22.309,0V360.84A11.154,11.154,0,0,1,257.694,371.995Z" transform="translate(-30.391 -70.422)" fill="#b5f5f6"/>
      </g>
      <g id="_1-6" data-name="1" transform="translate(1211 343.01)">
        <path id="Caminho_11-6" data-name="Caminho 11" d="M315.393,385.562H139.154A11.154,11.154,0,0,1,128,374.408V209.814a11.154,11.154,0,0,1,11.154-11.154H315.393a11.154,11.154,0,0,1,11.154,11.154V374.408A11.154,11.154,0,0,1,315.393,385.562ZM150.309,363.253h153.93V220.969H150.309Z" transform="translate(0 -38.628)" fill="#5ef3f5"/>
        <path id="Caminho_12-6" data-name="Caminho 12" d="M301.6,182.34H167.564a11.154,11.154,0,0,1,0-22.309H290.447V126.167a55.867,55.867,0,1,0-111.733,0,11.153,11.153,0,1,1-22.307,0,78.176,78.176,0,1,1,156.351,0l0,45.019A11.154,11.154,0,0,1,301.6,182.34Z" transform="translate(-7.283 0)" fill="#5ef3f5"/>
        <path id="Caminho_13-6" data-name="Caminho 13" d="M249.618,328.827A34.578,34.578,0,1,1,284.2,294.248a34.578,34.578,0,0,1-34.578,34.578Zm0-46.848a12.27,12.27,0,1,0,12.27,12.27A12.27,12.27,0,0,0,249.618,281.979Z" transform="translate(-22.315 -54.27)" fill="#5ef3f5"/>
        <path id="Caminho_14-6" data-name="Caminho 14" d="M257.694,371.995A11.154,11.154,0,0,1,246.54,360.84V333.824a11.154,11.154,0,0,1,22.309,0V360.84A11.154,11.154,0,0,1,257.694,371.995Z" transform="translate(-30.391 -70.422)" fill="#5ef3f5"/>
      </g>
    </g>
  </g>
</svg>