<svg xmlns="http://www.w3.org/2000/svg" width="1489" height="753" viewBox="0 0 1489 753">
  <g id="Grupo_14" data-name="Grupo 14" transform="translate(-360.381 -229)">
    <g id="Grupo_13" data-name="Grupo 13" transform="translate(360 229)">
      <text id="_0_1_0_0_1_0_0_1_0_0_1_0_1_0_0_0_1_0_1_1_1_1_0_1_1_0" data-name="0 1 0 0 1 0 0 1 0 0 1 0 1 0 0 0 1 0 1 1 1 1 0 1 1 0" transform="translate(1475.381 23)" fill="rgba(48,239,242,0.26)" font-size="24" font-family="HelveticaNeue, Helvetica Neue"><tspan x="0" y="0">0</tspan><tspan x="0" y="29">1</tspan><tspan x="0" y="58">0</tspan><tspan x="0" y="87">0</tspan><tspan x="0" y="116">1</tspan><tspan x="0" y="145">0</tspan><tspan x="0" y="174">0</tspan><tspan x="0" y="203">1</tspan><tspan x="0" y="232">0</tspan><tspan x="0" y="261">0</tspan><tspan x="0" y="290">1</tspan><tspan x="0" y="319">0</tspan><tspan x="0" y="348">1</tspan><tspan x="0" y="377">0</tspan><tspan x="0" y="406">0</tspan><tspan x="0" y="435">0</tspan><tspan x="0" y="464">1</tspan><tspan x="0" y="493">0</tspan><tspan x="0" y="522">1</tspan><tspan x="0" y="551">1</tspan><tspan x="0" y="580">1</tspan><tspan x="0" y="609">1</tspan><tspan x="0" y="638">0</tspan><tspan x="0" y="667">1</tspan><tspan x="0" y="696">1</tspan><tspan x="0" y="725">0</tspan></text>
      <text id="_0_1_1_1_0_1_0_1_0_0_1_1_1_0_1_0_1_0_1_0_1_0_1" data-name="0 1 1 1 0 1 0 1 0 0 1 1 1 0 1 0 1 0 1 0 1 0 1" transform="translate(1424.381 23)" fill="rgba(48,239,242,0.26)" font-size="24" font-family="HelveticaNeue, Helvetica Neue"><tspan x="0" y="0">0</tspan><tspan x="0" y="29">1</tspan><tspan x="0" y="58">1</tspan><tspan x="0" y="87">1</tspan><tspan x="0" y="116">0</tspan><tspan x="0" y="145">1</tspan><tspan x="0" y="174">0</tspan><tspan x="0" y="203">1</tspan><tspan x="0" y="232">0</tspan><tspan x="0" y="261">0</tspan><tspan x="0" y="290">1</tspan><tspan x="0" y="319">1</tspan><tspan x="0" y="348">1</tspan><tspan x="0" y="377">0</tspan><tspan x="0" y="406">1</tspan><tspan x="0" y="435">0</tspan><tspan x="0" y="464">1</tspan><tspan x="0" y="493">0</tspan><tspan x="0" y="522">1</tspan><tspan x="0" y="551">0</tspan><tspan x="0" y="580">1</tspan><tspan x="0" y="609">0</tspan><tspan x="0" y="638">1</tspan></text>
      <text id="_1_1_1_0_0_0_1_0_1_0_0_0_1_1_1_0_0_0_1_1_0_1_" data-name="1 1 1 0 0 0 1 0 1 0 0 0 1 1 1 0 0 0 1 1 0 1 " transform="translate(1323.381 23)" fill="rgba(48,239,242,0.26)" font-size="24" font-family="HelveticaNeue, Helvetica Neue"><tspan x="0" y="0">1</tspan><tspan x="0" y="29">1</tspan><tspan x="0" y="58">1</tspan><tspan x="0" y="87">0</tspan><tspan x="0" y="116">0</tspan><tspan x="0" y="145">0</tspan><tspan x="0" y="174">1</tspan><tspan x="0" y="203">0</tspan><tspan x="0" y="232">1</tspan><tspan x="0" y="261">0</tspan><tspan x="0" y="290">0</tspan><tspan x="0" y="319">0</tspan><tspan x="0" y="348">1</tspan><tspan x="0" y="377">1</tspan><tspan x="0" y="406">1</tspan><tspan x="0" y="435">0</tspan><tspan x="0" y="464">0</tspan><tspan x="0" y="493">0</tspan><tspan x="0" y="522">1</tspan><tspan x="0" y="551">1</tspan><tspan x="0" y="580">0</tspan><tspan x="0" y="609">1</tspan></text>
      <text id="_0_1_0_1_1_0_1_1_0_0_0_1_0_1_0_1_0_0_0_1" data-name="0 1 0 1 1 0 1 1 0 0 0 1 0 1 0 1 0 0 0 1" transform="translate(1374.381 23)" fill="rgba(48,239,242,0.26)" font-size="24" font-family="HelveticaNeue, Helvetica Neue"><tspan x="0" y="0">0</tspan><tspan x="0" y="29">1</tspan><tspan x="0" y="58">0</tspan><tspan x="0" y="87">1</tspan><tspan x="0" y="116">1</tspan><tspan x="0" y="145">0</tspan><tspan x="0" y="174">1</tspan><tspan x="0" y="203">1</tspan><tspan x="0" y="232">0</tspan><tspan x="0" y="261">0</tspan><tspan x="0" y="290">0</tspan><tspan x="0" y="319">1</tspan><tspan x="0" y="348">0</tspan><tspan x="0" y="377">1</tspan><tspan x="0" y="406">0</tspan><tspan x="0" y="435">1</tspan><tspan x="0" y="464">0</tspan><tspan x="0" y="493">0</tspan><tspan x="0" y="522">0</tspan><tspan x="0" y="551">1</tspan></text>
      <text id="_1_1_1_0_0_1_1_0_1_0_1_0_1_0_0_" data-name="1 1 1 0 0 1 1 0 1 0 1 0 1 0 0 " transform="translate(1272.381 23)" fill="rgba(48,239,242,0.26)" font-size="24" font-family="HelveticaNeue, Helvetica Neue"><tspan x="0" y="0">1</tspan><tspan x="0" y="29">1</tspan><tspan x="0" y="58">1</tspan><tspan x="0" y="87">0</tspan><tspan x="0" y="116">0</tspan><tspan x="0" y="145">1</tspan><tspan x="0" y="174">1</tspan><tspan x="0" y="203">0</tspan><tspan x="0" y="232">1</tspan><tspan x="0" y="261">0</tspan><tspan x="0" y="290">1</tspan><tspan x="0" y="319">0</tspan><tspan x="0" y="348">1</tspan><tspan x="0" y="377">0</tspan><tspan x="0" y="406">0</tspan></text>
      <text id="_1_1_1_0_0_1_0_1_0_0_1_0_0_1_0_1_0_" data-name="1 1 1 0 0 1 0 1 0 0 1 0 0 1 0 1 0 " transform="translate(1221.381 23)" fill="rgba(48,239,242,0.26)" font-size="24" font-family="HelveticaNeue, Helvetica Neue"><tspan x="0" y="0">1</tspan><tspan x="0" y="29">1</tspan><tspan x="0" y="58">1</tspan><tspan x="0" y="87">0</tspan><tspan x="0" y="116">0</tspan><tspan x="0" y="145">1</tspan><tspan x="0" y="174">0</tspan><tspan x="0" y="203">1</tspan><tspan x="0" y="232">0</tspan><tspan x="0" y="261">0</tspan><tspan x="0" y="290">1</tspan><tspan x="0" y="319">0</tspan><tspan x="0" y="348">0</tspan><tspan x="0" y="377">1</tspan><tspan x="0" y="406">0</tspan><tspan x="0" y="435">1</tspan><tspan x="0" y="464">0</tspan></text>
      <text id="_1_1_1_0_0_0_0_1_1_0_1_0_0_1_1_1_0_0_1_1" data-name="1 1 1 0 0 0 0 1 1 0 1 0 0 1 1 1 0 0 1 1" transform="translate(1119.381 23)" fill="rgba(48,239,242,0.26)" font-size="24" font-family="HelveticaNeue, Helvetica Neue"><tspan x="0" y="0">1</tspan><tspan x="0" y="29">1</tspan><tspan x="0" y="58">1</tspan><tspan x="0" y="87">0</tspan><tspan x="0" y="116">0</tspan><tspan x="0" y="145">0</tspan><tspan x="0" y="174">0</tspan><tspan x="0" y="203">1</tspan><tspan x="0" y="232">1</tspan><tspan x="0" y="261">0</tspan><tspan x="0" y="290">1</tspan><tspan x="0" y="319">0</tspan><tspan x="0" y="348">0</tspan><tspan x="0" y="377">1</tspan><tspan x="0" y="406">1</tspan><tspan x="0" y="435">1</tspan><tspan x="0" y="464">0</tspan><tspan x="0" y="493">0</tspan><tspan x="0" y="522">1</tspan><tspan x="0" y="551">1</tspan></text>
      <text id="_1_1_0_1_0_1_0_1_0_1_0_1_0_1" data-name="1 1 0 1 0 1 0 1 0 1 0 1 0 1" transform="translate(1170.381 23)" fill="rgba(48,239,242,0.26)" font-size="24" font-family="HelveticaNeue, Helvetica Neue"><tspan x="0" y="0">1</tspan><tspan x="0" y="29">1</tspan><tspan x="0" y="58">0</tspan><tspan x="0" y="87">1</tspan><tspan x="0" y="116">0</tspan><tspan x="0" y="145">1</tspan><tspan x="0" y="174">0</tspan><tspan x="0" y="203">1</tspan><tspan x="0" y="232">0</tspan><tspan x="0" y="261">1</tspan><tspan x="0" y="290">0</tspan><tspan x="0" y="319">1</tspan><tspan x="0" y="348">0</tspan><tspan x="0" y="377">1</tspan></text>
      <text id="_1_1_1_0_0_0_1_1_0_0_1_0_0_1_0_0_0_1_0_1_1_0_0_" data-name="1 1 1 0 0 0 1 1 0 0 1 0 0 1 0 0 0 1 0 1 1 0 0  " transform="translate(1068.381 23)" fill="rgba(48,239,242,0.26)" font-size="24" font-family="HelveticaNeue, Helvetica Neue"><tspan x="0" y="0">1</tspan><tspan x="0" y="29">1</tspan><tspan x="0" y="58">1</tspan><tspan x="0" y="87">0</tspan><tspan x="0" y="116">0</tspan><tspan x="0" y="145">0</tspan><tspan x="0" y="174">1</tspan><tspan x="0" y="203">1</tspan><tspan x="0" y="232">0</tspan><tspan x="0" y="261">0</tspan><tspan x="0" y="290">1</tspan><tspan x="0" y="319">0</tspan><tspan x="0" y="348">0</tspan><tspan x="0" y="377">1</tspan><tspan x="0" y="406">0</tspan><tspan x="0" y="435">0</tspan><tspan x="0" y="464">0</tspan><tspan x="0" y="493">1</tspan><tspan x="0" y="522">0</tspan><tspan x="0" y="551">1</tspan><tspan x="0" y="580">1</tspan><tspan x="0" y="609">0</tspan><tspan x="0" y="638">0</tspan></text>
      <text id="_0_1_0_0_1_0_0_1_0_0_1_0_1_0_0_0_1_0_1_1_1_1_0_1_1_0-2" data-name="0 1 0 0 1 0 0 1 0 0 1 0 1 0 0 0 1 0 1 1 1 1 0 1 1 0" transform="translate(1017.381 23)" fill="rgba(48,239,242,0.26)" font-size="24" font-family="HelveticaNeue, Helvetica Neue"><tspan x="0" y="0">0</tspan><tspan x="0" y="29">1</tspan><tspan x="0" y="58">0</tspan><tspan x="0" y="87">0</tspan><tspan x="0" y="116">1</tspan><tspan x="0" y="145">0</tspan><tspan x="0" y="174">0</tspan><tspan x="0" y="203">1</tspan><tspan x="0" y="232">0</tspan><tspan x="0" y="261">0</tspan><tspan x="0" y="290">1</tspan><tspan x="0" y="319">0</tspan><tspan x="0" y="348">1</tspan><tspan x="0" y="377">0</tspan><tspan x="0" y="406">0</tspan><tspan x="0" y="435">0</tspan><tspan x="0" y="464">1</tspan><tspan x="0" y="493">0</tspan><tspan x="0" y="522">1</tspan><tspan x="0" y="551">1</tspan><tspan x="0" y="580">1</tspan><tspan x="0" y="609">1</tspan><tspan x="0" y="638">0</tspan><tspan x="0" y="667">1</tspan><tspan x="0" y="696">1</tspan><tspan x="0" y="725">0</tspan></text>
      <text id="_0_1_1_1_0_1_0_1_0_0_1_1_1_0_1_0_1_0_1_0_1_0_1-2" data-name="0 1 1 1 0 1 0 1 0 0 1 1 1 0 1 0 1 0 1 0 1 0 1" transform="translate(966.381 23)" fill="rgba(48,239,242,0.26)" font-size="24" font-family="HelveticaNeue, Helvetica Neue"><tspan x="0" y="0">0</tspan><tspan x="0" y="29">1</tspan><tspan x="0" y="58">1</tspan><tspan x="0" y="87">1</tspan><tspan x="0" y="116">0</tspan><tspan x="0" y="145">1</tspan><tspan x="0" y="174">0</tspan><tspan x="0" y="203">1</tspan><tspan x="0" y="232">0</tspan><tspan x="0" y="261">0</tspan><tspan x="0" y="290">1</tspan><tspan x="0" y="319">1</tspan><tspan x="0" y="348">1</tspan><tspan x="0" y="377">0</tspan><tspan x="0" y="406">1</tspan><tspan x="0" y="435">0</tspan><tspan x="0" y="464">1</tspan><tspan x="0" y="493">0</tspan><tspan x="0" y="522">1</tspan><tspan x="0" y="551">0</tspan><tspan x="0" y="580">1</tspan><tspan x="0" y="609">0</tspan><tspan x="0" y="638">1</tspan></text>
      <text id="_1_1_1_0_0_0_1_0_1_0_0_0_1_1_1_0_0_0_1_1_0_1_2" data-name="1 1 1 0 0 0 1 0 1 0 0 0 1 1 1 0 0 0 1 1 0 1 " transform="translate(865.381 23)" fill="rgba(48,239,242,0.26)" font-size="24" font-family="HelveticaNeue, Helvetica Neue"><tspan x="0" y="0">1</tspan><tspan x="0" y="29">1</tspan><tspan x="0" y="58">1</tspan><tspan x="0" y="87">0</tspan><tspan x="0" y="116">0</tspan><tspan x="0" y="145">0</tspan><tspan x="0" y="174">1</tspan><tspan x="0" y="203">0</tspan><tspan x="0" y="232">1</tspan><tspan x="0" y="261">0</tspan><tspan x="0" y="290">0</tspan><tspan x="0" y="319">0</tspan><tspan x="0" y="348">1</tspan><tspan x="0" y="377">1</tspan><tspan x="0" y="406">1</tspan><tspan x="0" y="435">0</tspan><tspan x="0" y="464">0</tspan><tspan x="0" y="493">0</tspan><tspan x="0" y="522">1</tspan><tspan x="0" y="551">1</tspan><tspan x="0" y="580">0</tspan><tspan x="0" y="609">1</tspan></text>
      <text id="_0_1_0_1_1_0_1_1_0_0_0_1_0_1_0_1_0_0_0_1-2" data-name="0 1 0 1 1 0 1 1 0 0 0 1 0 1 0 1 0 0 0 1" transform="translate(916.381 23)" fill="rgba(48,239,242,0.26)" font-size="24" font-family="HelveticaNeue, Helvetica Neue"><tspan x="0" y="0">0</tspan><tspan x="0" y="29">1</tspan><tspan x="0" y="58">0</tspan><tspan x="0" y="87">1</tspan><tspan x="0" y="116">1</tspan><tspan x="0" y="145">0</tspan><tspan x="0" y="174">1</tspan><tspan x="0" y="203">1</tspan><tspan x="0" y="232">0</tspan><tspan x="0" y="261">0</tspan><tspan x="0" y="290">0</tspan><tspan x="0" y="319">1</tspan><tspan x="0" y="348">0</tspan><tspan x="0" y="377">1</tspan><tspan x="0" y="406">0</tspan><tspan x="0" y="435">1</tspan><tspan x="0" y="464">0</tspan><tspan x="0" y="493">0</tspan><tspan x="0" y="522">0</tspan><tspan x="0" y="551">1</tspan></text>
      <text id="_1_1_1_0_0_1_1_0_1_0_1_0_1_0_0_2" data-name="1 1 1 0 0 1 1 0 1 0 1 0 1 0 0 " transform="translate(814.381 23)" fill="rgba(48,239,242,0.26)" font-size="24" font-family="HelveticaNeue, Helvetica Neue"><tspan x="0" y="0">1</tspan><tspan x="0" y="29">1</tspan><tspan x="0" y="58">1</tspan><tspan x="0" y="87">0</tspan><tspan x="0" y="116">0</tspan><tspan x="0" y="145">1</tspan><tspan x="0" y="174">1</tspan><tspan x="0" y="203">0</tspan><tspan x="0" y="232">1</tspan><tspan x="0" y="261">0</tspan><tspan x="0" y="290">1</tspan><tspan x="0" y="319">0</tspan><tspan x="0" y="348">1</tspan><tspan x="0" y="377">0</tspan><tspan x="0" y="406">0</tspan></text>
      <text id="_1_1_1_0_0_1_0_1_0_0_1_0_0_1_0_1_0_2" data-name="1 1 1 0 0 1 0 1 0 0 1 0 0 1 0 1 0 " transform="translate(763.381 23)" fill="rgba(48,239,242,0.26)" font-size="24" font-family="HelveticaNeue, Helvetica Neue"><tspan x="0" y="0">1</tspan><tspan x="0" y="29">1</tspan><tspan x="0" y="58">1</tspan><tspan x="0" y="87">0</tspan><tspan x="0" y="116">0</tspan><tspan x="0" y="145">1</tspan><tspan x="0" y="174">0</tspan><tspan x="0" y="203">1</tspan><tspan x="0" y="232">0</tspan><tspan x="0" y="261">0</tspan><tspan x="0" y="290">1</tspan><tspan x="0" y="319">0</tspan><tspan x="0" y="348">0</tspan><tspan x="0" y="377">1</tspan><tspan x="0" y="406">0</tspan><tspan x="0" y="435">1</tspan><tspan x="0" y="464">0</tspan></text>
      <text id="_1_1_1_0_0_0_0_1_1_0_1_0_0_1_1_1_0_0_1_1-2" data-name="1 1 1 0 0 0 0 1 1 0 1 0 0 1 1 1 0 0 1 1" transform="translate(661.381 23)" fill="rgba(48,239,242,0.26)" font-size="24" font-family="HelveticaNeue, Helvetica Neue"><tspan x="0" y="0">1</tspan><tspan x="0" y="29">1</tspan><tspan x="0" y="58">1</tspan><tspan x="0" y="87">0</tspan><tspan x="0" y="116">0</tspan><tspan x="0" y="145">0</tspan><tspan x="0" y="174">0</tspan><tspan x="0" y="203">1</tspan><tspan x="0" y="232">1</tspan><tspan x="0" y="261">0</tspan><tspan x="0" y="290">1</tspan><tspan x="0" y="319">0</tspan><tspan x="0" y="348">0</tspan><tspan x="0" y="377">1</tspan><tspan x="0" y="406">1</tspan><tspan x="0" y="435">1</tspan><tspan x="0" y="464">0</tspan><tspan x="0" y="493">0</tspan><tspan x="0" y="522">1</tspan><tspan x="0" y="551">1</tspan></text>
      <text id="_1_1_0_1_0_1_0_1_0_1_0_1_0_1-2" data-name="1 1 0 1 0 1 0 1 0 1 0 1 0 1" transform="translate(712.381 23)" fill="rgba(48,239,242,0.26)" font-size="24" font-family="HelveticaNeue, Helvetica Neue"><tspan x="0" y="0">1</tspan><tspan x="0" y="29">1</tspan><tspan x="0" y="58">0</tspan><tspan x="0" y="87">1</tspan><tspan x="0" y="116">0</tspan><tspan x="0" y="145">1</tspan><tspan x="0" y="174">0</tspan><tspan x="0" y="203">1</tspan><tspan x="0" y="232">0</tspan><tspan x="0" y="261">1</tspan><tspan x="0" y="290">0</tspan><tspan x="0" y="319">1</tspan><tspan x="0" y="348">0</tspan><tspan x="0" y="377">1</tspan></text>
      <text id="_1_1_1_0_0_0_1_1_0_0_1_0_0_1_0_0_0_1_0_1_1_0_0_2" data-name="1 1 1 0 0 0 1 1 0 0 1 0 0 1 0 0 0 1 0 1 1 0 0  " transform="translate(610.381 23)" fill="rgba(48,239,242,0.26)" font-size="24" font-family="HelveticaNeue, Helvetica Neue"><tspan x="0" y="0">1</tspan><tspan x="0" y="29">1</tspan><tspan x="0" y="58">1</tspan><tspan x="0" y="87">0</tspan><tspan x="0" y="116">0</tspan><tspan x="0" y="145">0</tspan><tspan x="0" y="174">1</tspan><tspan x="0" y="203">1</tspan><tspan x="0" y="232">0</tspan><tspan x="0" y="261">0</tspan><tspan x="0" y="290">1</tspan><tspan x="0" y="319">0</tspan><tspan x="0" y="348">0</tspan><tspan x="0" y="377">1</tspan><tspan x="0" y="406">0</tspan><tspan x="0" y="435">0</tspan><tspan x="0" y="464">0</tspan><tspan x="0" y="493">1</tspan><tspan x="0" y="522">0</tspan><tspan x="0" y="551">1</tspan><tspan x="0" y="580">1</tspan><tspan x="0" y="609">0</tspan><tspan x="0" y="638">0</tspan></text>
      <text id="_0_1_0_0_1_0_0_1_0_0_1_0_1_0_0_0_1_0_1_1_1_1_0_1_1_0-3" data-name="0 1 0 0 1 0 0 1 0 0 1 0 1 0 0 0 1 0 1 1 1 1 0 1 1 0" transform="translate(559.381 23)" fill="rgba(48,239,242,0.26)" font-size="24" font-family="HelveticaNeue, Helvetica Neue"><tspan x="0" y="0">0</tspan><tspan x="0" y="29">1</tspan><tspan x="0" y="58">0</tspan><tspan x="0" y="87">0</tspan><tspan x="0" y="116">1</tspan><tspan x="0" y="145">0</tspan><tspan x="0" y="174">0</tspan><tspan x="0" y="203">1</tspan><tspan x="0" y="232">0</tspan><tspan x="0" y="261">0</tspan><tspan x="0" y="290">1</tspan><tspan x="0" y="319">0</tspan><tspan x="0" y="348">1</tspan><tspan x="0" y="377">0</tspan><tspan x="0" y="406">0</tspan><tspan x="0" y="435">0</tspan><tspan x="0" y="464">1</tspan><tspan x="0" y="493">0</tspan><tspan x="0" y="522">1</tspan><tspan x="0" y="551">1</tspan><tspan x="0" y="580">1</tspan><tspan x="0" y="609">1</tspan><tspan x="0" y="638">0</tspan><tspan x="0" y="667">1</tspan><tspan x="0" y="696">1</tspan><tspan x="0" y="725">0</tspan></text>
      <text id="_0_1_1_1_0_1_0_1_0_0_1_1_1_0_1_0_1_0_1_0_1_0_1-3" data-name="0 1 1 1 0 1 0 1 0 0 1 1 1 0 1 0 1 0 1 0 1 0 1" transform="translate(508.381 23)" fill="rgba(48,239,242,0.26)" font-size="24" font-family="HelveticaNeue, Helvetica Neue"><tspan x="0" y="0">0</tspan><tspan x="0" y="29">1</tspan><tspan x="0" y="58">1</tspan><tspan x="0" y="87">1</tspan><tspan x="0" y="116">0</tspan><tspan x="0" y="145">1</tspan><tspan x="0" y="174">0</tspan><tspan x="0" y="203">1</tspan><tspan x="0" y="232">0</tspan><tspan x="0" y="261">0</tspan><tspan x="0" y="290">1</tspan><tspan x="0" y="319">1</tspan><tspan x="0" y="348">1</tspan><tspan x="0" y="377">0</tspan><tspan x="0" y="406">1</tspan><tspan x="0" y="435">0</tspan><tspan x="0" y="464">1</tspan><tspan x="0" y="493">0</tspan><tspan x="0" y="522">1</tspan><tspan x="0" y="551">0</tspan><tspan x="0" y="580">1</tspan><tspan x="0" y="609">0</tspan><tspan x="0" y="638">1</tspan></text>
      <text id="_1_1_1_0_0_0_1_0_1_0_0_0_1_1_1_0_0_0_1_1_0_1_3" data-name="1 1 1 0 0 0 1 0 1 0 0 0 1 1 1 0 0 0 1 1 0 1 " transform="translate(407.381 23)" fill="rgba(48,239,242,0.26)" font-size="24" font-family="HelveticaNeue, Helvetica Neue"><tspan x="0" y="0">1</tspan><tspan x="0" y="29">1</tspan><tspan x="0" y="58">1</tspan><tspan x="0" y="87">0</tspan><tspan x="0" y="116">0</tspan><tspan x="0" y="145">0</tspan><tspan x="0" y="174">1</tspan><tspan x="0" y="203">0</tspan><tspan x="0" y="232">1</tspan><tspan x="0" y="261">0</tspan><tspan x="0" y="290">0</tspan><tspan x="0" y="319">0</tspan><tspan x="0" y="348">1</tspan><tspan x="0" y="377">1</tspan><tspan x="0" y="406">1</tspan><tspan x="0" y="435">0</tspan><tspan x="0" y="464">0</tspan><tspan x="0" y="493">0</tspan><tspan x="0" y="522">1</tspan><tspan x="0" y="551">1</tspan><tspan x="0" y="580">0</tspan><tspan x="0" y="609">1</tspan></text>
      <text id="_0_1_0_1_1_0_1_1_0_0_0_1_0_1_0_1_0_0_0_1-3" data-name="0 1 0 1 1 0 1 1 0 0 0 1 0 1 0 1 0 0 0 1" transform="translate(458.381 23)" fill="rgba(48,239,242,0.26)" font-size="24" font-family="HelveticaNeue, Helvetica Neue"><tspan x="0" y="0">0</tspan><tspan x="0" y="29">1</tspan><tspan x="0" y="58">0</tspan><tspan x="0" y="87">1</tspan><tspan x="0" y="116">1</tspan><tspan x="0" y="145">0</tspan><tspan x="0" y="174">1</tspan><tspan x="0" y="203">1</tspan><tspan x="0" y="232">0</tspan><tspan x="0" y="261">0</tspan><tspan x="0" y="290">0</tspan><tspan x="0" y="319">1</tspan><tspan x="0" y="348">0</tspan><tspan x="0" y="377">1</tspan><tspan x="0" y="406">0</tspan><tspan x="0" y="435">1</tspan><tspan x="0" y="464">0</tspan><tspan x="0" y="493">0</tspan><tspan x="0" y="522">0</tspan><tspan x="0" y="551">1</tspan></text>
      <text id="_1_1_1_0_0_1_1_0_1_0_1_0_1_0_0_3" data-name="1 1 1 0 0 1 1 0 1 0 1 0 1 0 0 " transform="translate(356.381 23)" fill="rgba(48,239,242,0.26)" font-size="24" font-family="HelveticaNeue, Helvetica Neue"><tspan x="0" y="0">1</tspan><tspan x="0" y="29">1</tspan><tspan x="0" y="58">1</tspan><tspan x="0" y="87">0</tspan><tspan x="0" y="116">0</tspan><tspan x="0" y="145">1</tspan><tspan x="0" y="174">1</tspan><tspan x="0" y="203">0</tspan><tspan x="0" y="232">1</tspan><tspan x="0" y="261">0</tspan><tspan x="0" y="290">1</tspan><tspan x="0" y="319">0</tspan><tspan x="0" y="348">1</tspan><tspan x="0" y="377">0</tspan><tspan x="0" y="406">0</tspan></text>
      <text id="_1_1_1_0_0_1_0_1_0_0_1_0_0_1_0_1_0_3" data-name="1 1 1 0 0 1 0 1 0 0 1 0 0 1 0 1 0 " transform="translate(305.381 23)" fill="rgba(48,239,242,0.26)" font-size="24" font-family="HelveticaNeue, Helvetica Neue"><tspan x="0" y="0">1</tspan><tspan x="0" y="29">1</tspan><tspan x="0" y="58">1</tspan><tspan x="0" y="87">0</tspan><tspan x="0" y="116">0</tspan><tspan x="0" y="145">1</tspan><tspan x="0" y="174">0</tspan><tspan x="0" y="203">1</tspan><tspan x="0" y="232">0</tspan><tspan x="0" y="261">0</tspan><tspan x="0" y="290">1</tspan><tspan x="0" y="319">0</tspan><tspan x="0" y="348">0</tspan><tspan x="0" y="377">1</tspan><tspan x="0" y="406">0</tspan><tspan x="0" y="435">1</tspan><tspan x="0" y="464">0</tspan></text>
      <text id="_1_1_1_0_0_0_0_1_1_0_1_0_0_1_1_1_0_0_1_1-3" data-name="1 1 1 0 0 0 0 1 1 0 1 0 0 1 1 1 0 0 1 1" transform="translate(203.381 23)" fill="rgba(48,239,242,0.26)" font-size="24" font-family="HelveticaNeue, Helvetica Neue"><tspan x="0" y="0">1</tspan><tspan x="0" y="29">1</tspan><tspan x="0" y="58">1</tspan><tspan x="0" y="87">0</tspan><tspan x="0" y="116">0</tspan><tspan x="0" y="145">0</tspan><tspan x="0" y="174">0</tspan><tspan x="0" y="203">1</tspan><tspan x="0" y="232">1</tspan><tspan x="0" y="261">0</tspan><tspan x="0" y="290">1</tspan><tspan x="0" y="319">0</tspan><tspan x="0" y="348">0</tspan><tspan x="0" y="377">1</tspan><tspan x="0" y="406">1</tspan><tspan x="0" y="435">1</tspan><tspan x="0" y="464">0</tspan><tspan x="0" y="493">0</tspan><tspan x="0" y="522">1</tspan><tspan x="0" y="551">1</tspan></text>
      <text id="_1_1_0_1_0_1_0_1_0_1_0_1_0_1-3" data-name="1 1 0 1 0 1 0 1 0 1 0 1 0 1" transform="translate(254.381 23)" fill="rgba(48,239,242,0.26)" font-size="24" font-family="HelveticaNeue, Helvetica Neue"><tspan x="0" y="0">1</tspan><tspan x="0" y="29">1</tspan><tspan x="0" y="58">0</tspan><tspan x="0" y="87">1</tspan><tspan x="0" y="116">0</tspan><tspan x="0" y="145">1</tspan><tspan x="0" y="174">0</tspan><tspan x="0" y="203">1</tspan><tspan x="0" y="232">0</tspan><tspan x="0" y="261">1</tspan><tspan x="0" y="290">0</tspan><tspan x="0" y="319">1</tspan><tspan x="0" y="348">0</tspan><tspan x="0" y="377">1</tspan></text>
      <text id="_1_1_1_0_0_0_1_1_0_0_1_0_0_1_0_0_0_1_0_1_1_0_0_3" data-name="1 1 1 0 0 0 1 1 0 0 1 0 0 1 0 0 0 1 0 1 1 0 0  " transform="translate(152.381 23)" fill="rgba(48,239,242,0.26)" font-size="24" font-family="HelveticaNeue, Helvetica Neue"><tspan x="0" y="0">1</tspan><tspan x="0" y="29">1</tspan><tspan x="0" y="58">1</tspan><tspan x="0" y="87">0</tspan><tspan x="0" y="116">0</tspan><tspan x="0" y="145">0</tspan><tspan x="0" y="174">1</tspan><tspan x="0" y="203">1</tspan><tspan x="0" y="232">0</tspan><tspan x="0" y="261">0</tspan><tspan x="0" y="290">1</tspan><tspan x="0" y="319">0</tspan><tspan x="0" y="348">0</tspan><tspan x="0" y="377">1</tspan><tspan x="0" y="406">0</tspan><tspan x="0" y="435">0</tspan><tspan x="0" y="464">0</tspan><tspan x="0" y="493">1</tspan><tspan x="0" y="522">0</tspan><tspan x="0" y="551">1</tspan><tspan x="0" y="580">1</tspan><tspan x="0" y="609">0</tspan><tspan x="0" y="638">0</tspan></text>
      <text id="_0_1_1_1_0_1_0_1_0_0_1_1_1_0_1_0_1_0_1_0_1_0_1-4" data-name="0 1 1 1 0 1 0 1 0 0 1 1 1 0 1 0 1 0 1 0 1 0 1" transform="translate(101.381 23)" fill="rgba(48,239,242,0.26)" font-size="24" font-family="HelveticaNeue, Helvetica Neue"><tspan x="0" y="0">0</tspan><tspan x="0" y="29">1</tspan><tspan x="0" y="58">1</tspan><tspan x="0" y="87">1</tspan><tspan x="0" y="116">0</tspan><tspan x="0" y="145">1</tspan><tspan x="0" y="174">0</tspan><tspan x="0" y="203">1</tspan><tspan x="0" y="232">0</tspan><tspan x="0" y="261">0</tspan><tspan x="0" y="290">1</tspan><tspan x="0" y="319">1</tspan><tspan x="0" y="348">1</tspan><tspan x="0" y="377">0</tspan><tspan x="0" y="406">1</tspan><tspan x="0" y="435">0</tspan><tspan x="0" y="464">1</tspan><tspan x="0" y="493">0</tspan><tspan x="0" y="522">1</tspan><tspan x="0" y="551">0</tspan><tspan x="0" y="580">1</tspan><tspan x="0" y="609">0</tspan><tspan x="0" y="638">1</tspan></text>
      <text id="_1_1_1_0_0_0_1_0_1_0_0_0_1_1_1_0_0_0_1_1_0_1_4" data-name="1 1 1 0 0 0 1 0 1 0 0 0 1 1 1 0 0 0 1 1 0 1 " transform="translate(0.381 23)" fill="rgba(48,239,242,0.26)" font-size="24" font-family="HelveticaNeue, Helvetica Neue"><tspan x="0" y="0">1</tspan><tspan x="0" y="29">1</tspan><tspan x="0" y="58">1</tspan><tspan x="0" y="87">0</tspan><tspan x="0" y="116">0</tspan><tspan x="0" y="145">0</tspan><tspan x="0" y="174">1</tspan><tspan x="0" y="203">0</tspan><tspan x="0" y="232">1</tspan><tspan x="0" y="261">0</tspan><tspan x="0" y="290">0</tspan><tspan x="0" y="319">0</tspan><tspan x="0" y="348">1</tspan><tspan x="0" y="377">1</tspan><tspan x="0" y="406">1</tspan><tspan x="0" y="435">0</tspan><tspan x="0" y="464">0</tspan><tspan x="0" y="493">0</tspan><tspan x="0" y="522">1</tspan><tspan x="0" y="551">1</tspan><tspan x="0" y="580">0</tspan><tspan x="0" y="609">1</tspan></text>
      <text id="_0_1_0_1_1_0_1_1_0_0_0_1_0_1_0_1_0_0_0_1-4" data-name="0 1 0 1 1 0 1 1 0 0 0 1 0 1 0 1 0 0 0 1" transform="translate(51.381 23)" fill="rgba(48,239,242,0.26)" font-size="24" font-family="HelveticaNeue, Helvetica Neue"><tspan x="0" y="0">0</tspan><tspan x="0" y="29">1</tspan><tspan x="0" y="58">0</tspan><tspan x="0" y="87">1</tspan><tspan x="0" y="116">1</tspan><tspan x="0" y="145">0</tspan><tspan x="0" y="174">1</tspan><tspan x="0" y="203">1</tspan><tspan x="0" y="232">0</tspan><tspan x="0" y="261">0</tspan><tspan x="0" y="290">0</tspan><tspan x="0" y="319">1</tspan><tspan x="0" y="348">0</tspan><tspan x="0" y="377">1</tspan><tspan x="0" y="406">0</tspan><tspan x="0" y="435">1</tspan><tspan x="0" y="464">0</tspan><tspan x="0" y="493">0</tspan><tspan x="0" y="522">0</tspan><tspan x="0" y="551">1</tspan></text>
    </g>
  </g>
</svg>