<svg viewBox="0 0 32 32" xmlns="http://www.w3.org/2000/svg"><g data-name="Cyber Security"><path d="M18 14h-4a1 1 0 0 1-1-1v-2a3 3 0 0 1 6 0v2a1 1 0 0 1-1 1Zm-3-2h2v-1a1 1 0 0 0-2 0Z" fill="#2e4277" class="fill-0e6ae0"></path><rect height="12" rx="3" ry="3" width="12" x="10" y="12" fill="#4466fb" class="fill-0593ff"></rect><path d="M18 17a2 2 0 1 0-3 1.72V20a1 1 0 0 0 2 0v-1.28A2 2 0 0 0 18 17Z" fill="#2e4277" class="fill-0e6ae0"></path><path d="M16 7a1 1 0 0 1-1-1V4a1 1 0 0 1 2 0v2a1 1 0 0 1-1 1ZM21 12a1 1 0 0 1-.71-.29 1 1 0 0 1 0-1.42L24 6.59V5a1 1 0 0 1 2 0v2a1 1 0 0 1-.29.71l-4 4A1 1 0 0 1 21 12ZM11 12a1 1 0 0 1-.71-.29l-4-4A1 1 0 0 1 6 7V5a1 1 0 0 1 2 0v1.59l3.71 3.7a1 1 0 0 1 0 1.42A1 1 0 0 1 11 12ZM25 28a1 1 0 0 1-1-1v-1.59l-1.71-1.7a1 1 0 0 1 1.42-1.42l2 2A1 1 0 0 1 26 25v2a1 1 0 0 1-1 1ZM7 28a1 1 0 0 1-1-1v-2a1 1 0 0 1 .29-.71l2-2a1 1 0 0 1 1.42 1.42L8 25.41V27a1 1 0 0 1-1 1ZM16 29a1 1 0 0 1-1-1v-2a1 1 0 0 1 2 0v2a1 1 0 0 1-1 1ZM28 17h-4a1 1 0 0 1 0-2h4a1 1 0 0 1 0 2ZM8 17H4a1 1 0 0 1 0-2h4a1 1 0 0 1 0 2Z" fill="#b7c5fd" class="fill-d8e1ef"></path><path d="M25 6a2 2 0 1 1 1.41-.59A2 2 0 0 1 25 6ZM7 6a2 2 0 1 1 1.41-.59A2 2 0 0 1 7 6Zm0-2ZM25 30a2 2 0 1 1 1.41-.59A2 2 0 0 1 25 30Zm0-2ZM7 30a2 2 0 1 1 1.41-.59A2 2 0 0 1 7 30Z" fill="#b7c5fd" class="fill-d8e1ef"></path><circle cx="29" cy="16" r="2" fill="#b7c5fd" class="fill-d8e1ef"></circle><circle cx="3" cy="16" r="2" fill="#b7c5fd" class="fill-d8e1ef"></circle><path d="M16 29Zm0 2a2 2 0 1 1 2-2 2 2 0 0 1-2 2ZM16 5a2 2 0 1 1 2-2 2 2 0 0 1-2 2Zm0-2Z" fill="#b7c5fd" class="fill-d8e1ef"></path></g></svg>