<svg viewBox="0 0 32 32" xml:space="preserve" xmlns="http://www.w3.org/2000/svg" enable-background="new 0 0 32 32"><path d="M21 8.2V5c0-2.8-2.2-5-5-5s-5 2.2-5 5v3.2c-1.2.4-2 1.5-2 2.8v4c0 1.7 1.3 3 3 3h8c1.7 0 3-1.3 3-3v-4c0-1.3-.8-2.4-2-2.8zM17 14c0 .6-.4 1-1 1s-1-.4-1-1v-2c0-.6.4-1 1-1s1 .4 1 1v2zm2-6h-6V5c0-1.7 1.3-3 3-3s3 1.3 3 3v3zM18.5 23.1l-1.5.5V22c0-.6-.4-1-1-1s-1 .4-1 1v1.6l-1.5-.5c-.5-.2-1.1.1-1.3.6-.2.5.1 1.1.6 1.3l1.5.5-1 1.3c-.3.4-.2 1.1.2 1.4.2.1.4.2.6.2.3 0 .6-.1.8-.4l1-1.3 1 1.3c.2.3.5.4.8.4.2 0 .4-.1.6-.2.4-.3.5-1 .2-1.4l-1-1.3L19 25c.5-.2.8-.7.6-1.3 0-.5-.5-.7-1.1-.6zM29.8 23.8c-.2-.5-.7-.8-1.3-.6l-1.5.4V22c0-.6-.4-1-1-1s-1 .4-1 1v1.6l-1.5-.5c-.5-.2-1.1.1-1.3.6-.2.5.1 1.1.6 1.3l1.5.5-1 1.3c-.3.4-.2 1.1.2 1.4.2.1.4.2.6.2.3 0 .6-.1.8-.4l1-1.3 1 1.3c.2.3.5.4.8.4.2 0 .4-.1.6-.2.4-.3.5-1 .2-1.4l-1-1.3L29 25c.7-.1 1-.7.8-1.2zM8.5 23.1l-1.5.5V22c0-.6-.4-1-1-1s-1 .4-1 1v1.6l-1.5-.5c-.5-.2-1.1.1-1.3.6-.2.6.1 1.2.6 1.3l1.5.5-1 1.3c-.3.4-.2 1.1.2 1.4.2.1.4.2.6.2.3 0 .6-.1.8-.4l1-1.3L7 28c.2.3.5.4.8.4.2 0 .4-.1.6-.2.4-.3.5-1 .2-1.4l-1-1.3 1.6-.5c.5-.2.8-.7.6-1.3-.2-.5-.7-.7-1.3-.6z" fill="#063738" class="fill-000000"></path></svg>