<svg viewBox="0 0 32 32" xmlns="http://www.w3.org/2000/svg"><path d="M22 23a1 1 0 0 1-.71-.29l-1.93-1.93a1 1 0 0 1 1.42-1.42l1.93 1.93a1 1 0 0 1 0 1.42A1 1 0 0 1 22 23Z" fill="#063738" class="fill-0e6ae0"></path><path d="M13 24a11 11 0 1 1 11-11 11 11 0 0 1-11 11Zm0-20a9 9 0 1 0 9 9 9 9 0 0 0-9-9Z" fill="#063738" class="fill-d8e1ef"></path><path d="m28.21 23.79-3.5-3.5a1 1 0 0 0-1.42 0l-3 3a1 1 0 0 0 0 1.42l3.5 3.5a3.14 3.14 0 0 0 4.42 0 3.14 3.14 0 0 0 0-4.42Z" fill="#063738" class="fill-0593ff"></path></svg>